<svg width="231" height="334" viewBox="0 0 231 334" fill="none" xmlns="http://www.w3.org/2000/svg">
<path d="M40.8555 90.2842C68.1924 91.7652 95.0681 87.5398 122.364 88.2871C140.176 88.9393 159.049 91.5202 174.755 100.501C185.692 106.656 194.456 116.263 198.736 128.138C202.337 138.504 202.703 150.026 200.665 160.746C197.513 175.257 188.273 186.412 176.589 195.094C196.154 199.183 213.6 211.086 222.894 229.007C229.483 241.099 231.331 254.863 229.837 268.464C228.234 282.648 223.872 296.426 214.32 307.336C205.217 317.906 192.676 324.401 179.334 327.961C164.755 331.725 149.646 333.64 134.592 333.382C107.853 333.694 81.2493 330.542 54.4287 331.086C45.6924 331.018 36.9014 331.548 28.1787 331.031C28.858 330.216 29.5919 329.537 30.3799 328.979C36.7793 327.58 44.2118 327.702 49.5107 323.246C53.4915 319.754 53.9673 312.716 54.5107 307.798C55.3124 294.782 55.5571 281.792 55.625 268.749C59.7145 268.695 63.7904 268.572 67.8799 268.45C67.9207 287.743 68.5191 307.037 68.7637 326.33C89.7825 327.675 110.829 327.648 131.875 327.431C146.155 326.901 161.453 325.664 175.054 321.045C186.711 316.915 197.934 309.659 204.796 299.17C213.899 285.828 216.535 267.865 215.177 252.077C212.908 228.599 194.66 208.64 172.323 202.159C156.698 197.404 141.304 199.755 125.081 199.863C108.668 200.434 89.8367 199.428 75.7607 189.999C67.6223 184.918 62.9753 177.091 59.1846 168.545C56.6575 162.703 55.4485 156.574 55.4756 150.202C55.2582 137.431 55.5163 124.89 54.3887 112.173C53.8588 107.091 53.138 100.746 48.6816 97.458C43.0295 93.3956 34.7007 93.5182 28.0703 92.0645C31.073 89.0482 36.9153 90.4879 40.8555 90.2842ZM0 0.949219C9.87767 1.16661 19.7825 1.4653 29.6602 1.07129C26.9156 2.79681 23.9267 3.82966 22.8262 7.18555C21.4811 12.0088 22.1193 17.4979 21.9971 22.4707C21.9971 96.7642 22.0377 171.099 21.9834 245.379C22.1464 248.028 22.1197 250.474 24.0762 252.525C26.6848 255.514 31.766 255.283 35.4072 255.46C55.7876 255.433 76.1684 255.433 96.5488 255.46C101.535 255.324 106.291 255.514 110.53 252.512C116.739 248.191 118.533 241.52 120.354 234.604C120.326 242.077 120.177 249.55 120.218 257.036C91.0331 257.308 61.8616 257.254 32.6904 257.213C22.8535 257.036 13.0567 256.873 3.21973 257.199C7.74416 254.006 10.245 251.248 10.0684 245.338C10.0955 171.058 10.0404 96.7506 10.0947 22.4707C9.99964 17.6202 10.543 12.4166 9.45605 7.6748C8.42341 3.3542 3.43748 2.57965 0 0.949219ZM112.851 92.0088C98.0273 92.1175 83.0812 92.8917 68.4346 95.2422C68.6384 110.84 68.1764 126.438 67.959 142.022C67.8368 153.952 69.4543 166.126 75.7178 176.492C80.745 184.821 89.5768 189.903 98.5576 192.96C110.324 196.669 121.22 195.433 133.271 195.039C145.051 194.373 156.872 194.414 168.652 193.884C170.921 193.897 173.027 191.656 174.562 190.188C182.891 181.561 186.342 170.025 187.701 158.381C188.802 145.867 187.497 132.362 181.111 121.315C175.853 111.805 166.981 104.861 157.253 100.351C143.68 93.9648 127.742 91.7778 112.851 92.0088Z" fill="#FDFEFD"/>
</svg>
